<svg width="131" height="74" viewBox="0 0 131 74" fill="none" xmlns="http://www.w3.org/2000/svg">
<path fill-rule="evenodd" clip-rule="evenodd" d="M50.9606 18.3726L79.8361 26.2615L76.1919 30.3498L48.1689 22.0845L50.9606 18.3726ZM51.2615 19.2487L49.446 21.6626L75.942 29.4775L78.4408 26.6743L51.2615 19.2487Z" fill="black" fill-opacity="0.35"/>
<path fill-rule="evenodd" clip-rule="evenodd" d="M47.5264 22.9709L75.5686 30.848L72.3699 34.9492L44.2845 26.6655L47.5264 22.9709ZM47.7849 23.8391L45.6517 26.2703L72.0853 34.0668L74.2617 31.2764L47.7849 23.8391Z" fill="black" fill-opacity="0.35"/>
<path fill-rule="evenodd" clip-rule="evenodd" d="M43.2936 28.3308L70.9441 35.8149L65.4709 43.372L37.3869 35.4832L43.2936 28.3308ZM43.5711 29.1993L38.7276 35.0642L65.1626 42.4899L69.6717 36.2639L43.5711 29.1993Z" fill="black" fill-opacity="0.35"/>
<path fill-rule="evenodd" clip-rule="evenodd" d="M31.0178 15.3066L37.9518 17.4674L34.1192 22.0536L40.6547 23.9704L35.5041 29.9627L29.7486 28.4323L25.9075 33.0287L18.1802 30.8883L22.3922 25.9244L16.2492 24.393L21.028 18.7611L26.7871 20.2926L31.0178 15.3066ZM31.275 16.189L27.0591 21.1574L21.3001 19.6259L17.6323 23.9485L23.7752 25.4799L19.5406 30.4704L25.6351 32.1586L29.4727 27.5664L35.2353 29.0988L39.2991 24.371L32.7808 22.4592L36.6269 17.8568L31.275 16.189Z" fill="black" fill-opacity="0.35"/>
<path fill-rule="evenodd" clip-rule="evenodd" d="M82.9778 42.5481C82.9778 44.874 80.7432 46.7595 77.9866 46.7595C75.2301 46.7595 72.9955 44.874 72.9955 42.5481C72.9955 40.2221 75.2301 38.3366 77.9866 38.3366C80.7432 38.3366 82.9778 40.2221 82.9778 42.5481ZM82.21 42.5481C82.21 44.3362 80.4444 45.9938 77.9866 45.9938C75.5289 45.9938 73.7633 44.3362 73.7633 42.5481C73.7633 40.7599 75.5289 39.1023 77.9866 39.1023C80.4444 39.1023 82.21 40.7599 82.21 42.5481Z" fill="black" fill-opacity="0.35"/>
<path fill-rule="evenodd" clip-rule="evenodd" d="M96.7995 46.3767C96.7995 48.7026 94.5649 50.5882 91.8084 50.5882C89.0518 50.5882 86.8172 48.7026 86.8172 46.3767C86.8172 44.0507 89.0518 42.1652 91.8084 42.1652C94.5649 42.1652 96.7995 44.0507 96.7995 46.3767ZM96.0317 46.3767C96.0317 48.1648 94.2661 49.8224 91.8084 49.8224C89.3507 49.8224 87.5851 48.1648 87.5851 46.3767C87.5851 44.5886 89.3507 42.9309 91.8084 42.9309C94.2661 42.9309 96.0317 44.5886 96.0317 46.3767Z" fill="black" fill-opacity="0.35"/>
<path fill-rule="evenodd" clip-rule="evenodd" d="M26.4078 6.12732L121.252 31.6057L100.787 58.6856L4.35082 31.2648L26.4078 6.12732ZM26.6704 6.99088L5.72657 30.8597L100.491 57.8051L119.955 32.0502L83.1299 22.1578L80.4389 25.7613L52.0092 17.4926L54.3054 14.4145L26.6704 6.99088ZM55.1027 14.6287L53.2845 17.0659L80.1417 24.8773L82.3325 21.9436L55.1027 14.6287Z" fill="black" fill-opacity="0.35"/>
<path fill-rule="evenodd" clip-rule="evenodd" d="M28.3259 0L128.222 27.308L131 39.5754L104.624 74L3.96822 45.1569L0 32.8899L28.3259 0ZM28.5917 0.866637L1.11234 32.7736L101.643 61.6333L127.251 27.8364L28.5917 0.866637ZM127.706 28.5054L102.205 62.1617L104.667 72.6826L130.172 39.3949L127.706 28.5054ZM103.956 73.0118L101.468 62.3798L1.01824 33.5434L4.57342 44.5336L103.956 73.0118Z" fill="black" fill-opacity="0.35"/>
<path fill-rule="evenodd" clip-rule="evenodd" d="M5.72657 30.8597L26.6704 6.99088L54.3054 14.4145L52.0092 17.4926L80.4389 25.7613L83.1299 22.1578L119.955 32.0502L100.491 57.8051L5.72657 30.8597ZM82.9778 42.5481C82.9778 44.874 80.7432 46.7595 77.9866 46.7595C75.2301 46.7595 72.9955 44.874 72.9955 42.5481C72.9955 40.2221 75.2301 38.3366 77.9866 38.3366C80.7432 38.3366 82.9778 40.2221 82.9778 42.5481ZM96.7995 46.3767C96.7995 48.7026 94.5649 50.5882 91.8084 50.5882C89.0518 50.5882 86.8172 48.7026 86.8172 46.3767C86.8172 44.0507 89.0518 42.1652 91.8084 42.1652C94.5649 42.1652 96.7995 44.0507 96.7995 46.3767ZM50.9606 18.3726L79.8361 26.2615L76.1919 30.3498L48.1689 22.0845L50.9606 18.3726ZM47.5264 22.9709L75.5686 30.848L72.3699 34.9492L44.2845 26.6655L47.5264 22.9709ZM43.2936 28.3308L70.9441 35.8149L65.4709 43.372L37.3869 35.4832L43.2936 28.3308ZM31.0178 15.3066L37.9518 17.4674L34.1192 22.0536L40.6547 23.9704L35.5041 29.9627L29.7486 28.4323L25.9075 33.0287L18.1802 30.8883L22.3922 25.9244L16.2492 24.393L21.028 18.7611L26.7871 20.2926L31.0178 15.3066Z" fill="black" fill-opacity="0.35"/>
</svg>
