<svg width="131" height="131" viewBox="0 0 131 131" fill="none" xmlns="http://www.w3.org/2000/svg">
<path d="M63.9219 19.187L90.75 31.5366L65.8945 72.9675L36.3047 57.0325L63.9219 19.187Z" fill="#AAAAAA"/>
<path d="M68.94 107.228L76.5469 111.61L74.1797 114L16.9727 80.935L15 76.1545L52.875 97.7458L68.94 107.228Z" fill="#AAAAAA"/>
<path d="M21.707 61.0163L25.2578 63.0081L23.2852 65.5363L21.707 61.0163Z" fill="#AAAAAA"/>
<path d="M84.832 96.4715L87.9883 98.4634L85.6211 101.252L83.0878 99.6585L84.832 96.4715Z" fill="#AAAAAA"/>
<path d="M87.9883 98.4634L116 43.4878L113.633 42.2927L113.238 43.0894L109.293 41.4959L109.687 40.6992L106.137 39.1057L105.348 40.3008M87.9883 98.4634L84.832 96.4715L83.0878 99.6585M87.9883 98.4634L85.6211 101.252L83.0878 99.6585M76.5469 111.61L68.94 107.228M76.5469 111.61L83.0878 99.6585M76.5469 111.61L74.1797 114L16.9727 80.935L15 76.1545M15 76.1545L52.875 97.7458M15 76.1545L23.2852 65.5363M21.707 61.0163L25.2578 63.0081L23.2852 65.5363M21.707 61.0163L57.2148 16L58.793 16.7967V17.5935L61.1602 18.7886L61.5547 17.9919L63.9219 19.187M21.707 61.0163L23.2852 65.5363M63.9219 19.187L90.75 31.5366M63.9219 19.187L36.3047 57.0325L65.8945 72.9675L90.75 31.5366M90.75 31.5366L91.9336 32.3333L91.1445 33.9268M91.1445 33.9268L105.348 40.3008M91.1445 33.9268L58.3984 88.5041M105.348 40.3008L74.1797 97.7458M74.1797 97.7458L58.3984 88.5041M74.1797 97.7458L68.94 107.228M58.3984 88.5041L52.875 97.7458M68.94 107.228L52.875 97.7458" stroke="black" stroke-opacity="0.35"/>
</svg>
