<svg width="777" height="192" viewBox="0 0 777 192" fill="none" xmlns="http://www.w3.org/2000/svg">
<path fill-rule="evenodd" clip-rule="evenodd" d="M0 95.8147C0 148.125 40.6773 191.264 101.558 191.28H674.901C735.786 191.264 776.472 148.125 776.472 95.8147C776.472 43.4999 735.691 -0.136639 675.001 0.000321532H101.471C40.7811 -0.136639 0 43.4999 0 95.8147ZM23.9598 95.6861C23.9598 55.8388 53.5517 23.6198 101.749 23.5368H674.71C722.916 23.624 752.512 55.8388 752.512 95.6861C752.512 135.529 723.094 168.001 674.71 167.823H101.749C53.3607 168.001 23.9598 135.529 23.9598 95.6861Z" fill="#E60012"/>
<path fill-rule="evenodd" clip-rule="evenodd" d="M77.0342 50.4558H105.074L143.9 113.242L143.879 50.4558H171.707V140.51H143.917L104.895 77.7193V140.51H77.0217L77.0342 50.4558ZM323.057 59.7276H350.159V71.8424H364.822V80.7366H350.159L350.175 140.51H323.057L323.07 80.7366H308.353V71.8508H323.078L323.057 59.7276ZM187.213 80.6287H214.294V140.51H187.213V80.6287ZM187.155 50.4392H214.294V68.85H187.155V50.4392ZM672.614 110.088C672.614 110.088 672.597 119.127 672.597 122.767C672.597 132.309 666.965 136.255 661.524 136.255C656.108 136.255 650.435 132.309 650.435 122.767C650.435 119.127 650.451 109.864 650.451 109.864C650.451 109.864 650.476 101.011 650.476 97.3711C650.476 87.8668 656.125 83.9572 661.524 83.9572C666.924 83.9572 672.597 87.8668 672.597 97.3711C672.597 101.011 672.597 107.714 672.614 110.129V110.088ZM661.736 76.5365C639.889 76.5365 622.179 91.5938 622.179 110.171C622.179 128.735 639.893 143.788 661.736 143.788C683.608 143.788 701.318 128.735 701.318 110.171C701.318 91.5938 683.608 76.5365 661.736 76.5365ZM586.628 50.4558H613.352V140.493H586.586L586.57 137.048C576.219 143.548 564.506 143.531 555.392 139.294C552.952 138.152 536.869 130.433 536.869 109.61C536.869 93.7894 551.794 76.5364 571.296 78.2464C577.725 78.8191 582.286 81.1599 586.624 83.5879L586.628 50.4558ZM586.823 110.266V99.5666C586.823 90.3031 580.435 87.9457 576.219 87.9457C571.898 87.9457 565.59 90.3031 565.59 99.5666C565.59 102.621 565.606 110.241 565.606 110.241C565.606 110.241 565.59 117.691 565.59 120.883C565.59 130.138 571.898 132.553 576.219 132.553C580.435 132.553 586.823 130.138 586.823 120.883V110.266ZM277.682 77.8604C287.8 77.5823 308.353 84.2104 308.203 107.925C308.174 112.125 308.195 140.497 308.195 140.497H281.292V101.173C281.292 95.9475 276.3 90.1412 268.929 90.1412C261.545 90.1412 256.067 95.9475 256.067 101.173L256.096 140.497H229.206L229.185 80.6204L256.092 80.5996C256.092 80.5996 256.063 85.4223 256.092 86.8915C261.926 81.3185 269.617 78.1016 277.682 77.8604ZM497.761 77.8604C507.863 77.5823 528.411 84.2104 528.282 107.925C528.241 112.125 528.258 140.497 528.258 140.497H501.355V101.173C501.355 95.9475 496.371 90.1412 488.991 90.1412C481.612 90.1412 476.117 95.9475 476.117 101.173L476.158 140.497H449.277L449.293 80.6204L476.158 80.5996C476.158 80.5996 476.117 85.4223 476.158 86.8915C481.996 81.3146 489.691 78.0973 497.761 77.8604ZM390.052 101.497C390.002 96.2588 390.11 92.7559 391.828 89.7428C393.961 86.0573 397.85 84.3017 401.37 84.2851H401.353C404.897 84.3017 408.761 86.0573 410.878 89.7428C412.596 92.7518 412.696 96.2588 412.654 101.497H390.052ZM412.538 119.559C412.538 119.559 412.563 119.824 412.563 123.199C412.563 134.151 405.358 136.592 401.37 136.592C397.365 136.592 390.031 134.151 390.031 123.199C390.031 119.907 390.072 110.831 390.072 110.831C390.072 110.831 441.067 110.847 441.067 110.831C441.067 92.2537 423.146 76.8685 401.121 76.8685C379.107 76.8685 361.248 91.9259 361.248 110.482C361.248 129.063 379.107 144.12 401.121 144.12C419.39 144.12 434.817 133.686 439.544 119.534L412.538 119.559ZM703.202 71.8839H700.081V51.3772H707.904C712.735 51.3772 715.142 53.166 715.142 57.2042C715.142 60.869 712.839 62.4668 709.818 62.8528L715.645 71.8839H712.175L706.759 62.9898H703.202V71.8839ZM706.912 60.3543C709.548 60.3543 711.88 60.1717 711.88 57.0175C711.88 54.4816 709.577 54.0043 707.431 54.0043H703.198V60.3543H706.912Z" fill="#E60012"/>
<path fill-rule="evenodd" clip-rule="evenodd" d="M688.892 61.5745C688.892 51.373 697.176 43.8485 706.954 43.8485C716.649 43.8485 724.908 51.3772 724.908 61.5745C724.908 71.8798 716.649 79.4002 706.954 79.4002C697.176 79.4002 688.892 71.8839 688.892 61.5745ZM706.954 76.4369C715.001 76.4369 721.335 70.1367 721.335 61.5745C721.335 53.166 715.005 46.8077 706.954 46.8077C698.823 46.8077 692.477 53.166 692.477 61.5745C692.477 70.1408 698.823 76.4369 706.954 76.4369Z" fill="#E60012"/>
</svg>
