<svg width="130" height="8" viewBox="0 0 130 8" fill="none" xmlns="http://www.w3.org/2000/svg">
<path d="M0.630005 6.99999V0.559991H1.59L4.95001 5.29999V0.559991H6.03001V6.99999H5.07L1.72 2.26999V6.99999H0.630005Z" fill="#6F6F6F"/>
<path d="M9.89993 6.99999V0.559991H14.3899V1.40999H10.9899V3.35999H14.0199V4.19999H10.9899V6.15999H14.3899V6.99999H9.89993Z" fill="#6F6F6F"/>
<path d="M19.7527 7.09999C18.9193 7.09999 18.2493 6.99333 17.7427 6.77999V5.81999C18.0293 5.92666 18.336 6.01333 18.6627 6.07999C18.996 6.14666 19.326 6.17999 19.6527 6.17999C20.166 6.17999 20.5493 6.11999 20.8027 5.99999C21.0627 5.87999 21.1927 5.63999 21.1927 5.27999C21.1927 5.05999 21.1393 4.88333 21.0327 4.74999C20.926 4.61666 20.7493 4.50333 20.5027 4.40999C20.256 4.30999 19.916 4.20666 19.4827 4.09999C18.7893 3.91999 18.3027 3.69333 18.0227 3.41999C17.7427 3.13999 17.6027 2.75666 17.6027 2.26999C17.6027 1.70332 17.8093 1.25999 18.2227 0.939992C18.636 0.619992 19.2527 0.459991 20.0727 0.459991C20.446 0.459991 20.796 0.486658 21.1227 0.539992C21.456 0.593325 21.716 0.653325 21.9027 0.719992V1.67999C21.396 1.48666 20.836 1.38999 20.2227 1.38999C19.7427 1.38999 19.3693 1.45332 19.1027 1.57999C18.836 1.70666 18.7027 1.93666 18.7027 2.26999C18.7027 2.46332 18.7493 2.61999 18.8427 2.73999C18.936 2.85999 19.096 2.96333 19.3227 3.04999C19.556 3.13666 19.876 3.23332 20.2827 3.33999C20.8093 3.47332 21.216 3.63332 21.5027 3.81999C21.796 3.99999 21.9993 4.21333 22.1127 4.45999C22.2327 4.69999 22.2927 4.97332 22.2927 5.27999C22.2927 5.84666 22.0827 6.29333 21.6627 6.61999C21.2427 6.93999 20.606 7.09999 19.7527 7.09999Z" fill="#6F6F6F"/>
<path d="M30.8542 6.99999V0.559991H33.4642C34.4176 0.559991 35.1242 0.813325 35.5842 1.31999C36.0442 1.81999 36.2742 2.65332 36.2742 3.81999C36.2742 4.91999 36.0476 5.72666 35.5942 6.23999C35.1409 6.74666 34.4309 6.99999 33.4642 6.99999H30.8542ZM31.9442 6.15999H33.2942C33.7142 6.15999 34.0642 6.09999 34.3442 5.97999C34.6242 5.85333 34.8342 5.61999 34.9742 5.27999C35.1142 4.93999 35.1842 4.45333 35.1842 3.81999C35.1842 3.18666 35.1209 2.69666 34.9942 2.34999C34.8676 2.00332 34.6642 1.75999 34.3842 1.61999C34.1109 1.47999 33.7476 1.40999 33.2942 1.40999H31.9442V6.15999Z" fill="#6F6F6F"/>
<path d="M39.9484 6.99999V0.559991H44.4384V1.40999H41.0384V3.35999H44.0684V4.19999H41.0384V6.15999H44.4384V6.99999H39.9484Z" fill="#6F6F6F"/>
<path d="M49.8011 7.09999C48.9678 7.09999 48.2978 6.99333 47.7911 6.77999V5.81999C48.0778 5.92666 48.3844 6.01333 48.7111 6.07999C49.0444 6.14666 49.3744 6.17999 49.7011 6.17999C50.2144 6.17999 50.5978 6.11999 50.8511 5.99999C51.1111 5.87999 51.2411 5.63999 51.2411 5.27999C51.2411 5.05999 51.1878 4.88333 51.0811 4.74999C50.9744 4.61666 50.7978 4.50333 50.5511 4.40999C50.3044 4.30999 49.9644 4.20666 49.5311 4.09999C48.8378 3.91999 48.3511 3.69333 48.0711 3.41999C47.7911 3.13999 47.6511 2.75666 47.6511 2.26999C47.6511 1.70332 47.8578 1.25999 48.2711 0.939992C48.6844 0.619992 49.3011 0.459991 50.1211 0.459991C50.4944 0.459991 50.8444 0.486658 51.1711 0.539992C51.5044 0.593325 51.7644 0.653325 51.9511 0.719992V1.67999C51.4444 1.48666 50.8844 1.38999 50.2711 1.38999C49.7911 1.38999 49.4178 1.45332 49.1511 1.57999C48.8844 1.70666 48.7511 1.93666 48.7511 2.26999C48.7511 2.46332 48.7978 2.61999 48.8911 2.73999C48.9844 2.85999 49.1444 2.96333 49.3711 3.04999C49.6044 3.13666 49.9244 3.23332 50.3311 3.33999C50.8578 3.47332 51.2644 3.63332 51.5511 3.81999C51.8444 3.99999 52.0478 4.21333 52.1611 4.45999C52.2811 4.69999 52.3411 4.97332 52.3411 5.27999C52.3411 5.84666 52.1311 6.29333 51.7111 6.61999C51.2911 6.93999 50.6544 7.09999 49.8011 7.09999Z" fill="#6F6F6F"/>
<path d="M55.998 6.99999V0.559991H57.088V6.99999H55.998Z" fill="#6F6F6F"/>
<path d="M63.9515 7.09999C62.8915 7.09999 62.0915 6.81333 61.5515 6.23999C61.0182 5.66666 60.7515 4.88999 60.7515 3.90999C60.7515 3.20333 60.8682 2.59333 61.1015 2.07999C61.3348 1.55999 61.6882 1.15999 62.1615 0.879991C62.6415 0.599991 63.2482 0.459991 63.9815 0.459991C64.3615 0.459991 64.7048 0.486658 65.0115 0.539992C65.3248 0.586658 65.6182 0.656658 65.8915 0.749992V1.68999C65.3448 1.48999 64.7382 1.38999 64.0715 1.38999C63.2515 1.38999 62.6748 1.60666 62.3415 2.03999C62.0148 2.47332 61.8515 3.09666 61.8515 3.90999C61.8515 4.64999 62.0248 5.21333 62.3715 5.59999C62.7182 5.98666 63.2548 6.17999 63.9815 6.17999C64.5548 6.17999 65.0182 6.11333 65.3715 5.97999V4.17999H63.7615V3.46999H66.3015V6.56999C66.0948 6.70333 65.7982 6.82666 65.4115 6.93999C65.0315 7.04666 64.5448 7.09999 63.9515 7.09999Z" fill="#6F6F6F"/>
<path d="M69.9577 6.99999V0.559991H70.9177L74.2777 5.29999V0.559991H75.3577V6.99999H74.3977L71.0477 2.26999V6.99999H69.9577Z" fill="#6F6F6F"/>
<path d="M86.0823 7.09999C85.249 7.09999 84.579 6.99333 84.0723 6.77999V5.81999C84.359 5.92666 84.6657 6.01333 84.9923 6.07999C85.3257 6.14666 85.6557 6.17999 85.9823 6.17999C86.4957 6.17999 86.879 6.11999 87.1323 5.99999C87.3923 5.87999 87.5223 5.63999 87.5223 5.27999C87.5223 5.05999 87.469 4.88333 87.3624 4.74999C87.2557 4.61666 87.079 4.50333 86.8323 4.40999C86.5857 4.30999 86.2457 4.20666 85.8123 4.09999C85.119 3.91999 84.6323 3.69333 84.3523 3.41999C84.0723 3.13999 83.9324 2.75666 83.9324 2.26999C83.9324 1.70332 84.139 1.25999 84.5523 0.939992C84.9657 0.619992 85.5823 0.459991 86.4023 0.459991C86.7757 0.459991 87.1257 0.486658 87.4523 0.539992C87.7857 0.593325 88.0457 0.653325 88.2323 0.719992V1.67999C87.7257 1.48666 87.1657 1.38999 86.5523 1.38999C86.0723 1.38999 85.699 1.45332 85.4324 1.57999C85.1657 1.70666 85.0323 1.93666 85.0323 2.26999C85.0323 2.46332 85.079 2.61999 85.1723 2.73999C85.2657 2.85999 85.4257 2.96333 85.6523 3.04999C85.8857 3.13666 86.2057 3.23332 86.6124 3.33999C87.139 3.47332 87.5457 3.63332 87.8323 3.81999C88.1257 3.99999 88.329 4.21333 88.4423 4.45999C88.5623 4.69999 88.6223 4.97332 88.6223 5.27999C88.6223 5.84666 88.4123 6.29333 87.9923 6.61999C87.5723 6.93999 86.9357 7.09999 86.0823 7.09999Z" fill="#6F6F6F"/>
<path d="M93.5488 6.99999V1.40999H91.4888V0.559991H96.6888V1.40999H94.6388V6.99999H93.5488Z" fill="#6F6F6F"/>
<path d="M102.912 7.09999C102.026 7.09999 101.336 6.88666 100.842 6.45999C100.356 6.03333 100.112 5.41666 100.112 4.60999V0.559991H101.202V4.56999C101.202 5.10999 101.349 5.51333 101.642 5.77999C101.942 6.04666 102.366 6.17999 102.912 6.17999C103.452 6.17999 103.869 6.04666 104.162 5.77999C104.462 5.51333 104.612 5.10999 104.612 4.56999V0.559991H105.692V4.60999C105.692 5.41666 105.449 6.03333 104.962 6.45999C104.476 6.88666 103.792 7.09999 102.912 7.09999Z" fill="#6F6F6F"/>
<path d="M109.501 6.99999V0.559991H112.111C113.064 0.559991 113.771 0.813325 114.231 1.31999C114.691 1.81999 114.921 2.65332 114.921 3.81999C114.921 4.91999 114.694 5.72666 114.241 6.23999C113.787 6.74666 113.077 6.99999 112.111 6.99999H109.501ZM110.591 6.15999H111.941C112.361 6.15999 112.711 6.09999 112.991 5.97999C113.271 5.85333 113.481 5.61999 113.621 5.27999C113.761 4.93999 113.831 4.45333 113.831 3.81999C113.831 3.18666 113.767 2.69666 113.641 2.34999C113.514 2.00332 113.311 1.75999 113.031 1.61999C112.757 1.47999 112.394 1.40999 111.941 1.40999H110.591V6.15999Z" fill="#6F6F6F"/>
<path d="M118.595 6.99999V0.559991H119.685V6.99999H118.595Z" fill="#6F6F6F"/>
<path d="M126.398 7.09999C125.378 7.09999 124.615 6.83333 124.108 6.29999C123.602 5.75999 123.348 4.92666 123.348 3.79999C123.348 2.62666 123.602 1.77666 124.108 1.24999C124.615 0.723325 125.378 0.459991 126.398 0.459991C127.425 0.459991 128.188 0.723325 128.688 1.24999C129.195 1.77666 129.448 2.62666 129.448 3.79999C129.448 4.92666 129.195 5.75999 128.688 6.29999C128.188 6.83333 127.425 7.09999 126.398 7.09999ZM126.398 6.17999C127.072 6.17999 127.565 5.99666 127.878 5.62999C128.198 5.25666 128.358 4.64666 128.358 3.79999C128.358 2.90666 128.198 2.28332 127.878 1.92999C127.565 1.56999 127.072 1.38999 126.398 1.38999C125.732 1.38999 125.238 1.56999 124.918 1.92999C124.605 2.28332 124.448 2.90666 124.448 3.79999C124.448 4.64666 124.605 5.25666 124.918 5.62999C125.238 5.99666 125.732 6.17999 126.398 6.17999Z" fill="#6F6F6F"/>
</svg>
