<svg width="50" height="33" viewBox="0 0 50 33" fill="none" xmlns="http://www.w3.org/2000/svg">
<path d="M25.0981 19.2503L4.75846 14.4075L4.94855 18.6438L25.3891 23.5861L25.0981 19.2503Z" fill="#AAAAAA"/>
<path fill-rule="evenodd" clip-rule="evenodd" d="M15.7321 0L49.6095 7.08171L50 12.7444V13.748L47.6863 18.1826L34.4817 32.9182L31.518 32.3254L25.812 30.8038L25.8095 30.8031L3.11006 25.0806L0.386375 20.0223V18.8404L0 13.238L15.7321 0ZM0.766556 19.076V19.9265L3.3654 24.7529L25.6514 30.3712L25.2979 25.0684L0.766556 19.076ZM25.2713 24.6705L25.2087 23.7381L4.76505 18.795L4.57498 14.5592L0.403709 13.566L0.756546 18.6822L25.2713 24.6705ZM0.607415 13.2237L4.70771 14.2L7.93953 11.4027L27.8911 16.217L38.9699 5.24603L15.8353 0.409983L0.607415 13.2237ZM39.4161 5.33929L37.2733 7.46117L42.7106 8.5131L44.6845 6.44059L39.4161 5.33929ZM45.1223 6.53212L31.6988 20.6264L36.0582 21.6644L49.0655 7.3564L45.1223 6.53212ZM49.2707 7.69582L36.3135 21.9488V26.9063L49.6146 12.6815L49.2707 7.69582ZM49.6198 13.2326L36.3135 27.463V28.2278L49.6198 13.6278V13.2326ZM48.964 14.9117L36.2855 28.8229L35.0429 31.7222L47.3713 17.9644L48.964 14.9117ZM34.2986 32.4938L35.9333 28.6796V27.544L31.5327 26.6709L31.7452 31.9831L34.2986 32.4938ZM31.361 31.8901L31.143 26.4413V20.8849L25.3051 19.4949L25.668 24.904L26.0391 30.4709L31.361 31.8901ZM25.475 19.1446L31.2708 20.5245L33.8643 17.8014L28.1982 16.4479L25.475 19.1446ZM28.5162 16.133L34.1676 17.483L42.3992 8.84008L36.9462 7.78511L28.5162 16.133ZM31.5232 20.9754V26.2814L35.9333 27.1564V22.0255L31.5232 20.9754ZM25.0394 19.0409L27.5735 16.5315L8.04046 11.8181L5.16331 14.3085L25.0394 19.0409ZM4.95966 14.6508L24.9179 19.4027L25.182 23.3405L5.13204 18.4926L4.95966 14.6508ZM5.899 22.0155L9.51072 22.8653V24.7766L5.899 23.9268V22.0155ZM6.27918 22.4955V23.6257L9.13054 24.2966V23.1664L6.27918 22.4955ZM9.70081 22.9659L13.3125 23.8158V25.727L9.70081 24.8772V22.9659ZM10.081 23.446V24.5761L12.9323 25.247V24.1169L10.081 23.446ZM26.2387 26.0155L27.4823 26.2642L28.5198 27.5092V29.5207L26.2387 29.0645V26.0155ZM26.6189 26.4793V28.7528L28.1396 29.057V27.6468L27.2762 26.6107L26.6189 26.4793ZM28.9 26.7759L30.1436 27.0246L31.181 28.2696V30.2811L28.9 29.8249V26.7759ZM29.2801 27.2396V29.5132L30.8009 29.8173V28.4072L29.9374 27.3711L29.2801 27.2396Z" fill="black" fill-opacity="0.35"/>
</svg>
