{
  "accessors": [
    {
      "bufferView": 2,
      "componentType": 5126,
      "count": 7358,
      "max": [
        0.5778101682662964,
        0.283991277217865,
        0.37576553225517273
      ],
      "min": [
        -0.5817622542381287,
        -0.16771569848060608,
        -0.6610300540924072
      ],
      "type": "VEC3"
    },
    {
      "bufferView": 2,
      "byteOffset": 88296,
      "componentType": 5126,
      "count": 7358,
      "max": [
        1.0,
        1.0,
        1.0
      ],
      "min": [
        -1.0,
        -1.0,
        -1.0
      ],
      "type": "VEC3"
    },
    {
      "bufferView": 1,
      "componentType": 5126,
      "count": 7358,
      "max": [
        0.8812887668609619,
        1.0
      ],
      "min": [
        0.11608515679836273,
        0.0
      ],
      "type": "VEC2"
    },
    {
      "bufferView": 0,
      "componentType": 5125,
      "count": 13842,
      "type": "SCALAR"
    },
    {
      "bufferView": 2,
      "byteOffset": 176592,
      "componentType": 5126,
      "count": 3129,
      "max": [
        0.6381245255470276,
        0.2815389633178711,
        0.38262221217155457
      ],
      "min": [
        -0.641114354133606,
        0.05804893374443054,
        -0.6580424904823303
      ],
      "type": "VEC3"
    },
    {
      "bufferView": 2,
      "byteOffset": 214140,
      "componentType": 5126,
      "count": 3129,
      "max": [
        1.0,
        1.0,
        1.0
      ],
      "min": [
        -1.0,
        -1.0,
        -1.0
      ],
      "type": "VEC3"
    },
    {
      "bufferView": 1,
      "byteOffset": 58864,
      "componentType": 5126,
      "count": 3129,
      "max": [
        1.000000238418579,
        1.0000001192092896
      ],
      "min": [
        0.0,
        0.0
      ],
      "type": "VEC2"
    },
    {
      "bufferView": 0,
      "byteOffset": 55368,
      "componentType": 5125,
      "count": 5028,
      "type": "SCALAR"
    },
    {
      "bufferView": 2,
      "byteOffset": 251688,
      "componentType": 5126,
      "count": 8491,
      "max": [
        0.6381245255470276,
        0.05804893374443054,
        0.3847041130065918
      ],
      "min": [
        -0.6411148309707642,
        -0.17610065639019012,
        -0.6580424904823303
      ],
      "type": "VEC3"
    },
    {
      "bufferView": 2,
      "byteOffset": 353580,
      "componentType": 5126,
      "count": 8491,
      "max": [
        1.0,
        1.0,
        1.0
      ],
      "min": [
        -1.0,
        -1.0,
        -1.0
      ],
      "type": "VEC3"
    },
    {
      "bufferView": 1,
      "byteOffset": 83896,
      "componentType": 5126,
      "count": 8491,
      "max": [
        1.0000003576278687,
        1.0000001192092896
      ],
      "min": [
        -6.92804746904585e-08,
        0.0
      ],
      "type": "VEC2"
    },
    {
      "bufferView": 0,
      "byteOffset": 75480,
      "componentType": 5125,
      "count": 13830,
      "type": "SCALAR"
    },
    {
      "bufferView": 2,
      "byteOffset": 455472,
      "componentType": 5126,
      "count": 420,
      "max": [
        -0.4660492241382599,
        -0.037047527730464935,
        0.3663901686668396
      ],
      "min": [
        -0.49729081988334656,
        -0.06837034970521927,
        0.36229071021080017
      ],
      "type": "VEC3"
    },
    {
      "bufferView": 2,
      "byteOffset": 460512,
      "componentType": 5126,
      "count": 420,
      "max": [
        1.0,
        0.9797844886779785,
        0.9987174272537231
      ],
      "min": [
        -1.0,
        -0.9983387589454651,
        -0.13932844996452332
      ],
      "type": "VEC3"
    },
    {
      "bufferView": 1,
      "byteOffset": 151824,
      "componentType": 5126,
      "count": 420,
      "max": [
        0.11706624925136566,
        0.0
      ],
      "min": [
        0.0832015872001648,
        0.0
      ],
      "type": "VEC2"
    },
    {
      "bufferView": 0,
      "byteOffset": 130800,
      "componentType": 5125,
      "count": 630,
      "type": "SCALAR"
    },
    {
      "bufferView": 2,
      "byteOffset": 465552,
      "componentType": 5126,
      "count": 480,
      "max": [
        0.5165836811065674,
        -0.17610065639019012,
        0.24824219942092896
      ],
      "min": [
        -0.5178115367889404,
        -0.1792357712984085,
        -0.5607290863990784
      ],
      "type": "VEC3"
    },
    {
      "bufferView": 2,
      "byteOffset": 471312,
      "componentType": 5126,
      "count": 480,
      "max": [
        1.0,
        0.0,
        1.0
      ],
      "min": [
        -1.0,
        -0.9779146313667297,
        -1.0
      ],
      "type": "VEC3"
    },
    {
      "bufferView": 1,
      "byteOffset": 155184,
      "componentType": 5126,
      "count": 480,
      "max": [
        0.0,
        0.0
      ],
      "min": [
        0.0,
        0.0
      ],
      "type": "VEC2"
    },
    {
      "bufferView": 0,
      "byteOffset": 133320,
      "componentType": 5125,
      "count": 1992,
      "type": "SCALAR"
    },
    {
      "bufferView": 2,
      "byteOffset": 477072,
      "componentType": 5126,
      "count": 416,
      "max": [
        0.6025225520133972,
        -0.009642025455832481,
        0.3542346656322479
      ],
      "min": [
        -0.44855377078056335,
        -0.0820687934756279,
        -0.62007737159729
      ],
      "type": "VEC3"
    },
    {
      "bufferView": 2,
      "byteOffset": 482064,
      "componentType": 5126,
      "count": 416,
      "max": [
        1.0,
        0.6542739868164063,
        1.0
      ],
      "min": [
        -1.0,
        -0.664098858833313,
        -1.0
      ],
      "type": "VEC3"
    },
    {
      "bufferView": 1,
      "byteOffset": 159024,
      "componentType": 5126,
      "count": 416,
      "max": [
        0.6150521636009216,
        0.7788123488426208
      ],
      "min": [
        0.0,
        0.0
      ],
      "type": "VEC2"
    },
    {
      "bufferView": 0,
      "byteOffset": 141288,
      "componentType": 5125,
      "count": 876,
      "type": "SCALAR"
    },
    {
      "bufferView": 2,
      "byteOffset": 487056,
      "componentType": 5126,
      "count": 96,
      "max": [
        0.6143658757209778,
        -0.014644274488091469,
        -0.42183804512023926
      ],
      "min": [
        0.6025225520133972,
        -0.03845702111721039,
        -0.44565078616142273
      ],
      "type": "VEC3"
    },
    {
      "bufferView": 2,
      "byteOffset": 488208,
      "componentType": 5126,
      "count": 96,
      "max": [
        1.0,
        1.0,
        1.0
      ],
      "min": [
        0.0,
        -1.0,
        -1.0
      ],
      "type": "VEC3"
    },
    {
      "bufferView": 1,
      "byteOffset": 162352,
      "componentType": 5126,
      "count": 96,
      "max": [
        0.0,
        0.0
      ],
      "min": [
        0.0,
        0.0
      ],
      "type": "VEC2"
    },
    {
      "bufferView": 0,
      "byteOffset": 144792,
      "componentType": 5125,
      "count": 288,
      "type": "SCALAR"
    },
    {
      "bufferView": 2,
      "byteOffset": 489360,
      "componentType": 5126,
      "count": 96,
      "max": [
        0.6143658757209778,
        -0.01464417390525341,
        -0.35305464267730713
      ],
      "min": [
        0.6025225520133972,
        -0.03845692425966263,
        -0.3768673539161682
      ],
      "type": "VEC3"
    },
    {
      "bufferView": 2,
      "byteOffset": 490512,
      "componentType": 5126,
      "count": 96,
      "max": [
        1.0,
        1.0,
        1.0
      ],
      "min": [
        0.0,
        -1.0,
        -1.0
      ],
      "type": "VEC3"
    },
    {
      "bufferView": 1,
      "byteOffset": 163120,
      "componentType": 5126,
      "count": 96,
      "max": [
        0.0,
        0.0
      ],
      "min": [
        0.0,
        0.0
      ],
      "type": "VEC2"
    },
    {
      "bufferView": 0,
      "byteOffset": 145944,
      "componentType": 5125,
      "count": 288,
      "type": "SCALAR"
    },
    {
      "bufferView": 2,
      "byteOffset": 491664,
      "componentType": 5126,
      "count": 609,
      "max": [
        0.6157205104827881,
        0.004767654929310083,
        -0.34466588497161865
      ],
      "min": [
        0.2585959732532501,
        -0.046845708042383194,
        -0.6332753896713257
      ],
      "type": "VEC3"
    },
    {
      "bufferView": 2,
      "byteOffset": 498972,
      "componentType": 5126,
      "count": 609,
      "max": [
        1.0,
        1.0,
        1.0
      ],
      "min": [
        -1.0,
        -1.0,
        -1.0
      ],
      "type": "VEC3"
    },
    {
      "bufferView": 1,
      "byteOffset": 163888,
      "componentType": 5126,
      "count": 609,
      "max": [
        0.6228575110435486,
        0.9558979272842407
      ],
      "min": [
        0.0,
        0.0
      ],
      "type": "VEC2"
    },
    {
      "bufferView": 0,
      "byteOffset": 147096,
      "componentType": 5125,
      "count": 1713,
      "type": "SCALAR"
    },
    {
      "bufferView": 2,
      "byteOffset": 506280,
      "componentType": 5126,
      "count": 96,
      "max": [
        0.29088810086250305,
        -0.014644274488091469,
        -0.62007737159729
      ],
      "min": [
        0.2670753300189972,
        -0.03845702111721039,
        -0.631920576095581
      ],
      "type": "VEC3"
    },
    {
      "bufferView": 2,
      "byteOffset": 507432,
      "componentType": 5126,
      "count": 96,
      "max": [
        1.0,
        1.0,
        -0.0
      ],
      "min": [
        -1.0,
        -1.0,
        -1.0
      ],
      "type": "VEC3"
    },
    {
      "bufferView": 1,
      "byteOffset": 168760,
      "componentType": 5126,
      "count": 96,
      "max": [
        0.0,
        0.0
      ],
      "min": [
        0.0,
        0.0
      ],
      "type": "VEC2"
    },
    {
      "bufferView": 0,
      "byteOffset": 153948,
      "componentType": 5125,
      "count": 288,
      "type": "SCALAR"
    },
    {
      "bufferView": 2,
      "byteOffset": 508584,
      "componentType": 5126,
      "count": 6704,
      "max": [
        0.6038415431976318,
        0.23314890265464783,
        0.38475683331489563
      ],
      "min": [
        -0.4576376676559448,
        -0.08708424866199493,
        -0.6157214641571045
      ],
      "type": "VEC3"
    },
    {
      "bufferView": 2,
      "byteOffset": 589032,
      "componentType": 5126,
      "count": 6704,
      "max": [
        1.0,
        0.0,
        1.0
      ],
      "min": [
        -0.0005532798240892589,
        -0.046767715364694595,
        -0.9998220801353455
      ],
      "type": "VEC3"
    },
    {
      "bufferView": 1,
      "byteOffset": 169528,
      "componentType": 5126,
      "count": 6704,
      "max": [
        17.564340591430664,
        0.0
      ],
      "min": [
        -31.628868103027344,
        0.0
      ],
      "type": "VEC2"
    },
    {
      "bufferView": 0,
      "byteOffset": 155100,
      "componentType": 5125,
      "count": 12624,
      "type": "SCALAR"
    }
  ],
  "asset": {
    "extras": {
      "author": "gabstock (https://sketchfab.com/gabstock)",
      "license": "SKETCHFAB Editorial (https://sketchfab.com/licenses)",
      "source": "https://sketchfab.com/3d-models/nes-nintendo-be655ca06bfb4ab48bffccccd33e3733",
      "title": "NES nintendo"
    },
    "generator": "Sketchfab-12.68.0",
    "version": "2.0"
  },
  "bufferViews": [
    {
      "buffer": 0,
      "byteLength": 205596,
      "name": "floatBufferViews",
      "target": 34963
    },
    {
      "buffer": 0,
      "byteLength": 223160,
      "byteOffset": 205596,
      "byteStride": 8,
      "name": "floatBufferViews",
      "target": 34962
    },
    {
      "buffer": 0,
      "byteLength": 669480,
      "byteOffset": 428756,
      "byteStride": 12,
      "name": "floatBufferViews",
      "target": 34962
    }
  ],
  "buffers": [
    {
      "byteLength": 1098236,
      "uri": "scene.bin"
    }
  ],
  "materials": [
    {
      "doubleSided": true,
      "name": "Material.001",
      "pbrMetallicRoughness": {
        "baseColorFactor": [
          0.0,
          0.0,
          0.0,
          1.0
        ],
        "metallicFactor": 0.0,
        "roughnessFactor": 0.21123
      }
    },
    {
      "doubleSided": true,
      "name": "Material.002",
      "pbrMetallicRoughness": {
        "baseColorFactor": [
          0.245877,
          0.24763,
          0.238614,
          1.0
        ],
        "metallicFactor": 0.0,
        "roughnessFactor": 0.5
      }
    },
    {
      "doubleSided": true,
      "name": "Material.003",
      "pbrMetallicRoughness": {
        "baseColorFactor": [
          0.0451844,
          0.0406703,
          0.0440304,
          1.0
        ],
        "metallicFactor": 0.0,
        "roughnessFactor": 0.336957
      }
    },
    {
      "doubleSided": true,
      "emissiveFactor": [
        1.0,
        0.00447766,
        0.0
      ],
      "name": "Material.004"
    },
    {
      "doubleSided": true,
      "name": "Material.005",
      "pbrMetallicRoughness": {
        "baseColorFactor": [
          0.0,
          0.0,
          0.0,
          1.0
        ],
        "metallicFactor": 0.0,
        "roughnessFactor": 0.833333
      }
    },
    {
      "doubleSided": true,
      "name": "Material.007",
      "pbrMetallicRoughness": {
        "baseColorFactor": [
          0.0,
          0.0,
          0.0,
          1.0
        ],
        "metallicFactor": 0.0,
        "roughnessFactor": 0.5
      }
    },
    {
      "doubleSided": true,
      "name": "Material.008",
      "pbrMetallicRoughness": {
        "baseColorFactor": [
          0.404358,
          0.265478,
          0.0,
          1.0
        ],
        "metallicFactor": 0.0,
        "roughnessFactor": 0.629032
      }
    },
    {
      "doubleSided": true,
      "name": "Material.009",
      "pbrMetallicRoughness": {
        "baseColorFactor": [
          0.329892,
          0.00312123,
          0.00147981,
          1.0
        ],
        "metallicFactor": 0.0,
        "roughnessFactor": 0.629
      }
    },
    {
      "doubleSided": true,
      "name": "Material.010",
      "pbrMetallicRoughness": {
        "baseColorFactor": [
          0.607451,
          0.607451,
          0.607451,
          1.0
        ],
        "metallicFactor": 0.983871,
        "roughnessFactor": 0.129032
      }
    },
    {
      "doubleSided": true,
      "name": "Material.011",
      "pbrMetallicRoughness": {
        "baseColorFactor": [
          0.8,
          0.8,
          0.8,
          1.0
        ],
        "metallicFactor": 0.0,
        "roughnessFactor": 0.5
      }
    },
    {
      "doubleSided": true,
      "name": "logo",
      "pbrMetallicRoughness": {
        "baseColorFactor": [
          0.369414,
          0.0,
          0.0,
          1.0
        ],
        "metallicFactor": 0.0,
        "roughnessFactor": 0.650538
      }
    }
  ],
  "meshes": [
    {
      "name": "Object_0",
      "primitives": [
        {
          "attributes": {
            "NORMAL": 1,
            "POSITION": 0,
            "TEXCOORD_0": 2
          },
          "indices": 3,
          "material": 0,
          "mode": 4
        }
      ]
    },
    {
      "name": "Object_1",
      "primitives": [
        {
          "attributes": {
            "NORMAL": 5,
            "POSITION": 4,
            "TEXCOORD_0": 6
          },
          "indices": 7,
          "material": 1,
          "mode": 4
        }
      ]
    },
    {
      "name": "Object_2",
      "primitives": [
        {
          "attributes": {
            "NORMAL": 9,
            "POSITION": 8,
            "TEXCOORD_0": 10
          },
          "indices": 11,
          "material": 2,
          "mode": 4
        }
      ]
    },
    {
      "name": "Object_3",
      "primitives": [
        {
          "attributes": {
            "NORMAL": 13,
            "POSITION": 12,
            "TEXCOORD_0": 14
          },
          "indices": 15,
          "material": 3,
          "mode": 4
        }
      ]
    },
    {
      "name": "Object_4",
      "primitives": [
        {
          "attributes": {
            "NORMAL": 17,
            "POSITION": 16,
            "TEXCOORD_0": 18
          },
          "indices": 19,
          "material": 4,
          "mode": 4
        }
      ]
    },
    {
      "name": "Object_5",
      "primitives": [
        {
          "attributes": {
            "NORMAL": 21,
            "POSITION": 20,
            "TEXCOORD_0": 22
          },
          "indices": 23,
          "material": 5,
          "mode": 4
        }
      ]
    },
    {
      "name": "Object_6",
      "primitives": [
        {
          "attributes": {
            "NORMAL": 25,
            "POSITION": 24,
            "TEXCOORD_0": 26
          },
          "indices": 27,
          "material": 6,
          "mode": 4
        }
      ]
    },
    {
      "name": "Object_7",
      "primitives": [
        {
          "attributes": {
            "NORMAL": 29,
            "POSITION": 28,
            "TEXCOORD_0": 30
          },
          "indices": 31,
          "material": 7,
          "mode": 4
        }
      ]
    },
    {
      "name": "Object_8",
      "primitives": [
        {
          "attributes": {
            "NORMAL": 33,
            "POSITION": 32,
            "TEXCOORD_0": 34
          },
          "indices": 35,
          "material": 8,
          "mode": 4
        }
      ]
    },
    {
      "name": "Object_9",
      "primitives": [
        {
          "attributes": {
            "NORMAL": 37,
            "POSITION": 36,
            "TEXCOORD_0": 38
          },
          "indices": 39,
          "material": 9,
          "mode": 4
        }
      ]
    },
    {
      "name": "Object_10",
      "primitives": [
        {
          "attributes": {
            "NORMAL": 41,
            "POSITION": 40,
            "TEXCOORD_0": 42
          },
          "indices": 43,
          "material": 10,
          "mode": 4
        }
      ]
    }
  ],
  "nodes": [
    {
      "children": [
        1
      ],
      "matrix": [
        1.0,
        0.0,
        0.0,
        0.0,
        0.0,
        2.220446049250313e-16,
        -1.0,
        0.0,
        0.0,
        1.0,
        2.220446049250313e-16,
        0.0,
        0.0,
        0.0,
        0.0,
        1.0
      ],
      "name": "Sketchfab_model"
    },
    {
      "children": [
        2
      ],
      "name": "root"
    },
    {
      "children": [
        3
      ],
      "matrix": [
        1.0,
        0.0,
        0.0,
        0.0,
        0.0,
        2.220446049250313e-16,
        1.0,
        0.0,
        0.0,
        -1.0,
        2.220446049250313e-16,
        0.0,
        0.0,
        0.0,
        0.0,
        1.0
      ],
      "name": "GLTF_SceneRootNode"
    },
    {
      "children": [
        4,
        5,
        6,
        7,
        8,
        9,
        10,
        11,
        12,
        13,
        14
      ],
      "matrix": [
        1.0,
        0.0,
        0.0,
        0.0,
        0.0,
        1.0,
        0.0,
        0.0,
        0.0,
        0.0,
        1.0,
        0.0,
        -0.0006588362157344818,
        0.18435437977313995,
        0.0,
        1.0
      ],
      "name": "Nes_6"
    },
    {
      "mesh": 0,
      "name": "Object_4"
    },
    {
      "mesh": 1,
      "name": "Object_5"
    },
    {
      "mesh": 2,
      "name": "Object_6"
    },
    {
      "mesh": 3,
      "name": "Object_7"
    },
    {
      "mesh": 4,
      "name": "Object_8"
    },
    {
      "mesh": 5,
      "name": "Object_9"
    },
    {
      "mesh": 6,
      "name": "Object_10"
    },
    {
      "mesh": 7,
      "name": "Object_11"
    },
    {
      "mesh": 8,
      "name": "Object_12"
    },
    {
      "mesh": 9,
      "name": "Object_13"
    },
    {
      "mesh": 10,
      "name": "Object_14"
    }
  ],
  "scene": 0,
  "scenes": [
    {
      "name": "Sketchfab_Scene",
      "nodes": [
        0
      ]
    }
  ]
}
